<svg width="1000" height="1000" viewBox="0 0 1000 1000" xmlns="http://www.w3.org/2000/svg">
<rect x="0" y="0" width="1000" height="1000" opacity="1" fill="#FFFFFF" stroke="none"/>
<line opacity="0.1" stroke="#000000" stroke-width="1" x1="29" y1="974" x2="29" y2="5"/>
<line opacity="0.1" stroke="#000000" stroke-width="1" x1="39" y1="974" x2="39" y2="5"/>
<line opacity="0.1" stroke="#000000" stroke-width="1" x1="48" y1="974" x2="48" y2="5"/>
<line opacity="0.1" stroke="#000000" stroke-width="1" x1="58" y1="974" x2="58" y2="5"/>
<line opacity="0.1" stroke="#000000" stroke-width="1" x1="67" y1="974" x2="67" y2="5"/>
<line opacity="0.1" stroke="#000000" stroke-width="1" x1="77" y1="974" x2="77" y2="5"/>
<line opacity="0.1" stroke="#000000" stroke-width="1" x1="87" y1="974" x2="87" y2="5"/>
<line opacity="0.1" stroke="#000000" stroke-width="1" x1="96" y1="974" x2="96" y2="5"/>
<line opacity="0.1" stroke="#000000" stroke-width="1" x1="106" y1="974" x2="106" y2="5"/>
<line opacity="0.1" stroke="#000000" stroke-width="1" x1="115" y1="974" x2="115" y2="5"/>
<line opacity="0.1" stroke="#000000" stroke-width="1" x1="125" y1="974" x2="125" y2="5"/>
<line opacity="0.1" stroke="#000000" stroke-width="1" x1="135" y1="974" x2="135" y2="5"/>
<line opacity="0.1" stroke="#000000" stroke-width="1" x1="144" y1="974" x2="144" y2="5"/>
<line opacity="0.1" stroke="#000000" stroke-width="1" x1="154" y1="974" x2="154" y2="5"/>
<line opacity="0.1" stroke="#000000" stroke-width="1" x1="163" y1="974" x2="163" y2="5"/>
<line opacity="0.1" stroke="#000000" stroke-width="1" x1="173" y1="974" x2="173" y2="5"/>
<line opacity="0.1" stroke="#000000" stroke-width="1" x1="183" y1="974" x2="183" y2="5"/>
<line opacity="0.1" stroke="#000000" stroke-width="1" x1="192" y1="974" x2="192" y2="5"/>
<line opacity="0.1" stroke="#000000" stroke-width="1" x1="202" y1="974" x2="202" y2="5"/>
<line opacity="0.1" stroke="#000000" stroke-width="1" x1="211" y1="974" x2="211" y2="5"/>
<line opacity="0.1" stroke="#000000" stroke-width="1" x1="221" y1="974" x2="221" y2="5"/>
<line opacity="0.1" stroke="#000000" stroke-width="1" x1="230" y1="974" x2="230" y2="5"/>
<line opacity="0.1" stroke="#000000" stroke-width="1" x1="240" y1="974" x2="240" y2="5"/>
<line opacity="0.1" stroke="#000000" stroke-width="1" x1="250" y1="974" x2="250" y2="5"/>
<line opacity="0.1" stroke="#000000" stroke-width="1" x1="259" y1="974" x2="259" y2="5"/>
<line opacity="0.1" stroke="#000000" stroke-width="1" x1="269" y1="974" x2="269" y2="5"/>
<line opacity="0.1" stroke="#000000" stroke-width="1" x1="278" y1="974" x2="278" y2="5"/>
<line opacity="0.1" stroke="#000000" stroke-width="1" x1="288" y1="974" x2="288" y2="5"/>
<line opacity="0.1" stroke="#000000" stroke-width="1" x1="298" y1="974" x2="298" y2="5"/>
<line opacity="0.1" stroke="#000000" stroke-width="1" x1="307" y1="974" x2="307" y2="5"/>
<line opacity="0.1" stroke="#000000" stroke-width="1" x1="317" y1="974" x2="317" y2="5"/>
<line opacity="0.1" stroke="#000000" stroke-width="1" x1="326" y1="974" x2="326" y2="5"/>
<line opacity="0.1" stroke="#000000" stroke-width="1" x1="336" y1="974" x2="336" y2="5"/>
<line opacity="0.1" stroke="#000000" stroke-width="1" x1="346" y1="974" x2="346" y2="5"/>
<line opacity="0.1" stroke="#000000" stroke-width="1" x1="355" y1="974" x2="355" y2="5"/>
<line opacity="0.1" stroke="#000000" stroke-width="1" x1="365" y1="974" x2="365" y2="5"/>
<line opacity="0.1" stroke="#000000" stroke-width="1" x1="374" y1="974" x2="374" y2="5"/>
<line opacity="0.1" stroke="#000000" stroke-width="1" x1="384" y1="974" x2="384" y2="5"/>
<line opacity="0.1" stroke="#000000" stroke-width="1" x1="394" y1="974" x2="394" y2="5"/>
<line opacity="0.1" stroke="#000000" stroke-width="1" x1="403" y1="974" x2="403" y2="5"/>
<line opacity="0.1" stroke="#000000" stroke-width="1" x1="413" y1="974" x2="413" y2="5"/>
<line opacity="0.1" stroke="#000000" stroke-width="1" x1="422" y1="974" x2="422" y2="5"/>
<line opacity="0.1" stroke="#000000" stroke-width="1" x1="432" y1="974" x2="432" y2="5"/>
<line opacity="0.1" stroke="#000000" stroke-width="1" x1="441" y1="974" x2="441" y2="5"/>
<line opacity="0.1" stroke="#000000" stroke-width="1" x1="451" y1="974" x2="451" y2="5"/>
<line opacity="0.1" stroke="#000000" stroke-width="1" x1="461" y1="974" x2="461" y2="5"/>
<line opacity="0.1" stroke="#000000" stroke-width="1" x1="470" y1="974" x2="470" y2="5"/>
<line opacity="0.1" stroke="#000000" stroke-width="1" x1="480" y1="974" x2="480" y2="5"/>
<line opacity="0.1" stroke="#000000" stroke-width="1" x1="489" y1="974" x2="489" y2="5"/>
<line opacity="0.1" stroke="#000000" stroke-width="1" x1="499" y1="974" x2="499" y2="5"/>
<line opacity="0.1" stroke="#000000" stroke-width="1" x1="509" y1="974" x2="509" y2="5"/>
<line opacity="0.1" stroke="#000000" stroke-width="1" x1="518" y1="974" x2="518" y2="5"/>
<line opacity="0.1" stroke="#000000" stroke-width="1" x1="528" y1="974" x2="528" y2="5"/>
<line opacity="0.1" stroke="#000000" stroke-width="1" x1="537" y1="974" x2="537" y2="5"/>
<line opacity="0.1" stroke="#000000" stroke-width="1" x1="547" y1="974" x2="547" y2="5"/>
<line opacity="0.1" stroke="#000000" stroke-width="1" x1="557" y1="974" x2="557" y2="5"/>
<line opacity="0.1" stroke="#000000" stroke-width="1" x1="566" y1="974" x2="566" y2="5"/>
<line opacity="0.1" stroke="#000000" stroke-width="1" x1="576" y1="974" x2="576" y2="5"/>
<line opacity="0.1" stroke="#000000" stroke-width="1" x1="585" y1="974" x2="585" y2="5"/>
<line opacity="0.1" stroke="#000000" stroke-width="1" x1="595" y1="974" x2="595" y2="5"/>
<line opacity="0.1" stroke="#000000" stroke-width="1" x1="604" y1="974" x2="604" y2="5"/>
<line opacity="0.1" stroke="#000000" stroke-width="1" x1="614" y1="974" x2="614" y2="5"/>
<line opacity="0.1" stroke="#000000" stroke-width="1" x1="624" y1="974" x2="624" y2="5"/>
<line opacity="0.1" stroke="#000000" stroke-width="1" x1="633" y1="974" x2="633" y2="5"/>
<line opacity="0.1" stroke="#000000" stroke-width="1" x1="643" y1="974" x2="643" y2="5"/>
<line opacity="0.1" stroke="#000000" stroke-width="1" x1="652" y1="974" x2="652" y2="5"/>
<line opacity="0.1" stroke="#000000" stroke-width="1" x1="662" y1="974" x2="662" y2="5"/>
<line opacity="0.1" stroke="#000000" stroke-width="1" x1="672" y1="974" x2="672" y2="5"/>
<line opacity="0.1" stroke="#000000" stroke-width="1" x1="681" y1="974" x2="681" y2="5"/>
<line opacity="0.1" stroke="#000000" stroke-width="1" x1="691" y1="974" x2="691" y2="5"/>
<line opacity="0.1" stroke="#000000" stroke-width="1" x1="700" y1="974" x2="700" y2="5"/>
<line opacity="0.1" stroke="#000000" stroke-width="1" x1="710" y1="974" x2="710" y2="5"/>
<line opacity="0.1" stroke="#000000" stroke-width="1" x1="720" y1="974" x2="720" y2="5"/>
<line opacity="0.1" stroke="#000000" stroke-width="1" x1="729" y1="974" x2="729" y2="5"/>
<line opacity="0.1" stroke="#000000" stroke-width="1" x1="739" y1="974" x2="739" y2="5"/>
<line opacity="0.1" stroke="#000000" stroke-width="1" x1="748" y1="974" x2="748" y2="5"/>
<line opacity="0.1" stroke="#000000" stroke-width="1" x1="758" y1="974" x2="758" y2="5"/>
<line opacity="0.1" stroke="#000000" stroke-width="1" x1="768" y1="974" x2="768" y2="5"/>
<line opacity="0.1" stroke="#000000" stroke-width="1" x1="777" y1="974" x2="777" y2="5"/>
<line opacity="0.1" stroke="#000000" stroke-width="1" x1="787" y1="974" x2="787" y2="5"/>
<line opacity="0.1" stroke="#000000" stroke-width="1" x1="796" y1="974" x2="796" y2="5"/>
<line opacity="0.1" stroke="#000000" stroke-width="1" x1="806" y1="974" x2="806" y2="5"/>
<line opacity="0.1" stroke="#000000" stroke-width="1" x1="815" y1="974" x2="815" y2="5"/>
<line opacity="0.1" stroke="#000000" stroke-width="1" x1="825" y1="974" x2="825" y2="5"/>
<line opacity="0.1" stroke="#000000" stroke-width="1" x1="835" y1="974" x2="835" y2="5"/>
<line opacity="0.1" stroke="#000000" stroke-width="1" x1="844" y1="974" x2="844" y2="5"/>
<line opacity="0.1" stroke="#000000" stroke-width="1" x1="854" y1="974" x2="854" y2="5"/>
<line opacity="0.1" stroke="#000000" stroke-width="1" x1="863" y1="974" x2="863" y2="5"/>
<line opacity="0.1" stroke="#000000" stroke-width="1" x1="873" y1="974" x2="873" y2="5"/>
<line opacity="0.1" stroke="#000000" stroke-width="1" x1="883" y1="974" x2="883" y2="5"/>
<line opacity="0.1" stroke="#000000" stroke-width="1" x1="892" y1="974" x2="892" y2="5"/>
<line opacity="0.1" stroke="#000000" stroke-width="1" x1="902" y1="974" x2="902" y2="5"/>
<line opacity="0.1" stroke="#000000" stroke-width="1" x1="911" y1="974" x2="911" y2="5"/>
<line opacity="0.1" stroke="#000000" stroke-width="1" x1="921" y1="974" x2="921" y2="5"/>
<line opacity="0.1" stroke="#000000" stroke-width="1" x1="931" y1="974" x2="931" y2="5"/>
<line opacity="0.1" stroke="#000000" stroke-width="1" x1="940" y1="974" x2="940" y2="5"/>
<line opacity="0.1" stroke="#000000" stroke-width="1" x1="950" y1="974" x2="950" y2="5"/>
<line opacity="0.1" stroke="#000000" stroke-width="1" x1="959" y1="974" x2="959" y2="5"/>
<line opacity="0.1" stroke="#000000" stroke-width="1" x1="969" y1="974" x2="969" y2="5"/>
<line opacity="0.1" stroke="#000000" stroke-width="1" x1="979" y1="974" x2="979" y2="5"/>
<line opacity="0.1" stroke="#000000" stroke-width="1" x1="989" y1="974" x2="989" y2="5"/>
<line opacity="0.1" stroke="#000000" stroke-width="1" x1="25" y1="974" x2="994" y2="974"/>
<line opacity="0.1" stroke="#000000" stroke-width="1" x1="25" y1="965" x2="994" y2="965"/>
<line opacity="0.1" stroke="#000000" stroke-width="1" x1="25" y1="955" x2="994" y2="955"/>
<line opacity="0.1" stroke="#000000" stroke-width="1" x1="25" y1="945" x2="994" y2="945"/>
<line opacity="0.1" stroke="#000000" stroke-width="1" x1="25" y1="936" x2="994" y2="936"/>
<line opacity="0.1" stroke="#000000" stroke-width="1" x1="25" y1="926" x2="994" y2="926"/>
<line opacity="0.1" stroke="#000000" stroke-width="1" x1="25" y1="916" x2="994" y2="916"/>
<line opacity="0.1" stroke="#000000" stroke-width="1" x1="25" y1="907" x2="994" y2="907"/>
<line opacity="0.1" stroke="#000000" stroke-width="1" x1="25" y1="897" x2="994" y2="897"/>
<line opacity="0.1" stroke="#000000" stroke-width="1" x1="25" y1="887" x2="994" y2="887"/>
<line opacity="0.1" stroke="#000000" stroke-width="1" x1="25" y1="878" x2="994" y2="878"/>
<line opacity="0.1" stroke="#000000" stroke-width="1" x1="25" y1="868" x2="994" y2="868"/>
<line opacity="0.1" stroke="#000000" stroke-width="1" x1="25" y1="858" x2="994" y2="858"/>
<line opacity="0.1" stroke="#000000" stroke-width="1" x1="25" y1="849" x2="994" y2="849"/>
<line opacity="0.1" stroke="#000000" stroke-width="1" x1="25" y1="839" x2="994" y2="839"/>
<line opacity="0.1" stroke="#000000" stroke-width="1" x1="25" y1="829" x2="994" y2="829"/>
<line opacity="0.1" stroke="#000000" stroke-width="1" x1="25" y1="819" x2="994" y2="819"/>
<line opacity="0.1" stroke="#000000" stroke-width="1" x1="25" y1="810" x2="994" y2="810"/>
<line opacity="0.1" stroke="#000000" stroke-width="1" x1="25" y1="800" x2="994" y2="800"/>
<line opacity="0.1" stroke="#000000" stroke-width="1" x1="25" y1="790" x2="994" y2="790"/>
<line opacity="0.1" stroke="#000000" stroke-width="1" x1="25" y1="781" x2="994" y2="781"/>
<line opacity="0.1" stroke="#000000" stroke-width="1" x1="25" y1="771" x2="994" y2="771"/>
<line opacity="0.1" stroke="#000000" stroke-width="1" x1="25" y1="761" x2="994" y2="761"/>
<line opacity="0.1" stroke="#000000" stroke-width="1" x1="25" y1="752" x2="994" y2="752"/>
<line opacity="0.1" stroke="#000000" stroke-width="1" x1="25" y1="742" x2="994" y2="742"/>
<line opacity="0.1" stroke="#000000" stroke-width="1" x1="25" y1="732" x2="994" y2="732"/>
<line opacity="0.1" stroke="#000000" stroke-width="1" x1="25" y1="723" x2="994" y2="723"/>
<line opacity="0.1" stroke="#000000" stroke-width="1" x1="25" y1="713" x2="994" y2="713"/>
<line opacity="0.1" stroke="#000000" stroke-width="1" x1="25" y1="703" x2="994" y2="703"/>
<line opacity="0.1" stroke="#000000" stroke-width="1" x1="25" y1="693" x2="994" y2="693"/>
<line opacity="0.1" stroke="#000000" stroke-width="1" x1="25" y1="684" x2="994" y2="684"/>
<line opacity="0.1" stroke="#000000" stroke-width="1" x1="25" y1="674" x2="994" y2="674"/>
<line opacity="0.1" stroke="#000000" stroke-width="1" x1="25" y1="664" x2="994" y2="664"/>
<line opacity="0.1" stroke="#000000" stroke-width="1" x1="25" y1="655" x2="994" y2="655"/>
<line opacity="0.1" stroke="#000000" stroke-width="1" x1="25" y1="645" x2="994" y2="645"/>
<line opacity="0.1" stroke="#000000" stroke-width="1" x1="25" y1="635" x2="994" y2="635"/>
<line opacity="0.1" stroke="#000000" stroke-width="1" x1="25" y1="626" x2="994" y2="626"/>
<line opacity="0.1" stroke="#000000" stroke-width="1" x1="25" y1="616" x2="994" y2="616"/>
<line opacity="0.1" stroke="#000000" stroke-width="1" x1="25" y1="606" x2="994" y2="606"/>
<line opacity="0.1" stroke="#000000" stroke-width="1" x1="25" y1="597" x2="994" y2="597"/>
<line opacity="0.1" stroke="#000000" stroke-width="1" x1="25" y1="587" x2="994" y2="587"/>
<line opacity="0.1" stroke="#000000" stroke-width="1" x1="25" y1="577" x2="994" y2="577"/>
<line opacity="0.1" stroke="#000000" stroke-width="1" x1="25" y1="568" x2="994" y2="568"/>
<line opacity="0.1" stroke="#000000" stroke-width="1" x1="25" y1="558" x2="994" y2="558"/>
<line opacity="0.1" stroke="#000000" stroke-width="1" x1="25" y1="548" x2="994" y2="548"/>
<line opacity="0.1" stroke="#000000" stroke-width="1" x1="25" y1="538" x2="994" y2="538"/>
<line opacity="0.1" stroke="#000000" stroke-width="1" x1="25" y1="529" x2="994" y2="529"/>
<line opacity="0.1" stroke="#000000" stroke-width="1" x1="25" y1="519" x2="994" y2="519"/>
<line opacity="0.1" stroke="#000000" stroke-width="1" x1="25" y1="509" x2="994" y2="509"/>
<line opacity="0.1" stroke="#000000" stroke-width="1" x1="25" y1="500" x2="994" y2="500"/>
<line opacity="0.1" stroke="#000000" stroke-width="1" x1="25" y1="490" x2="994" y2="490"/>
<line opacity="0.1" stroke="#000000" stroke-width="1" x1="25" y1="480" x2="994" y2="480"/>
<line opacity="0.1" stroke="#000000" stroke-width="1" x1="25" y1="471" x2="994" y2="471"/>
<line opacity="0.1" stroke="#000000" stroke-width="1" x1="25" y1="461" x2="994" y2="461"/>
<line opacity="0.1" stroke="#000000" stroke-width="1" x1="25" y1="451" x2="994" y2="451"/>
<line opacity="0.1" stroke="#000000" stroke-width="1" x1="25" y1="442" x2="994" y2="442"/>
<line opacity="0.1" stroke="#000000" stroke-width="1" x1="25" y1="432" x2="994" y2="432"/>
<line opacity="0.1" stroke="#000000" stroke-width="1" x1="25" y1="422" x2="994" y2="422"/>
<line opacity="0.1" stroke="#000000" stroke-width="1" x1="25" y1="412" x2="994" y2="412"/>
<line opacity="0.1" stroke="#000000" stroke-width="1" x1="25" y1="403" x2="994" y2="403"/>
<line opacity="0.1" stroke="#000000" stroke-width="1" x1="25" y1="393" x2="994" y2="393"/>
<line opacity="0.1" stroke="#000000" stroke-width="1" x1="25" y1="383" x2="994" y2="383"/>
<line opacity="0.1" stroke="#000000" stroke-width="1" x1="25" y1="374" x2="994" y2="374"/>
<line opacity="0.1" stroke="#000000" stroke-width="1" x1="25" y1="364" x2="994" y2="364"/>
<line opacity="0.1" stroke="#000000" stroke-width="1" x1="25" y1="354" x2="994" y2="354"/>
<line opacity="0.1" stroke="#000000" stroke-width="1" x1="25" y1="345" x2="994" y2="345"/>
<line opacity="0.1" stroke="#000000" stroke-width="1" x1="25" y1="335" x2="994" y2="335"/>
<line opacity="0.1" stroke="#000000" stroke-width="1" x1="25" y1="325" x2="994" y2="325"/>
<line opacity="0.1" stroke="#000000" stroke-width="1" x1="25" y1="316" x2="994" y2="316"/>
<line opacity="0.1" stroke="#000000" stroke-width="1" x1="25" y1="306" x2="994" y2="306"/>
<line opacity="0.1" stroke="#000000" stroke-width="1" x1="25" y1="296" x2="994" y2="296"/>
<line opacity="0.1" stroke="#000000" stroke-width="1" x1="25" y1="287" x2="994" y2="287"/>
<line opacity="0.1" stroke="#000000" stroke-width="1" x1="25" y1="277" x2="994" y2="277"/>
<line opacity="0.1" stroke="#000000" stroke-width="1" x1="25" y1="267" x2="994" y2="267"/>
<line opacity="0.1" stroke="#000000" stroke-width="1" x1="25" y1="257" x2="994" y2="257"/>
<line opacity="0.1" stroke="#000000" stroke-width="1" x1="25" y1="248" x2="994" y2="248"/>
<line opacity="0.1" stroke="#000000" stroke-width="1" x1="25" y1="238" x2="994" y2="238"/>
<line opacity="0.1" stroke="#000000" stroke-width="1" x1="25" y1="228" x2="994" y2="228"/>
<line opacity="0.1" stroke="#000000" stroke-width="1" x1="25" y1="219" x2="994" y2="219"/>
<line opacity="0.1" stroke="#000000" stroke-width="1" x1="25" y1="209" x2="994" y2="209"/>
<line opacity="0.1" stroke="#000000" stroke-width="1" x1="25" y1="199" x2="994" y2="199"/>
<line opacity="0.1" stroke="#000000" stroke-width="1" x1="25" y1="190" x2="994" y2="190"/>
<line opacity="0.1" stroke="#000000" stroke-width="1" x1="25" y1="180" x2="994" y2="180"/>
<line opacity="0.1" stroke="#000000" stroke-width="1" x1="25" y1="170" x2="994" y2="170"/>
<line opacity="0.1" stroke="#000000" stroke-width="1" x1="25" y1="161" x2="994" y2="161"/>
<line opacity="0.1" stroke="#000000" stroke-width="1" x1="25" y1="151" x2="994" y2="151"/>
<line opacity="0.1" stroke="#000000" stroke-width="1" x1="25" y1="141" x2="994" y2="141"/>
<line opacity="0.1" stroke="#000000" stroke-width="1" x1="25" y1="131" x2="994" y2="131"/>
<line opacity="0.1" stroke="#000000" stroke-width="1" x1="25" y1="122" x2="994" y2="122"/>
<line opacity="0.1" stroke="#000000" stroke-width="1" x1="25" y1="112" x2="994" y2="112"/>
<line opacity="0.1" stroke="#000000" stroke-width="1" x1="25" y1="102" x2="994" y2="102"/>
<line opacity="0.1" stroke="#000000" stroke-width="1" x1="25" y1="93" x2="994" y2="93"/>
<line opacity="0.1" stroke="#000000" stroke-width="1" x1="25" y1="83" x2="994" y2="83"/>
<line opacity="0.1" stroke="#000000" stroke-width="1" x1="25" y1="73" x2="994" y2="73"/>
<line opacity="0.1" stroke="#000000" stroke-width="1" x1="25" y1="64" x2="994" y2="64"/>
<line opacity="0.1" stroke="#000000" stroke-width="1" x1="25" y1="54" x2="994" y2="54"/>
<line opacity="0.1" stroke="#000000" stroke-width="1" x1="25" y1="44" x2="994" y2="44"/>
<line opacity="0.1" stroke="#000000" stroke-width="1" x1="25" y1="35" x2="994" y2="35"/>
<line opacity="0.1" stroke="#000000" stroke-width="1" x1="25" y1="25" x2="994" y2="25"/>
<line opacity="0.1" stroke="#000000" stroke-width="1" x1="25" y1="15" x2="994" y2="15"/>
<line opacity="0.1" stroke="#000000" stroke-width="1" x1="25" y1="5" x2="994" y2="5"/>
<line opacity="0.2" stroke="#000000" stroke-width="1" x1="29" y1="974" x2="29" y2="5"/>
<line opacity="0.2" stroke="#000000" stroke-width="1" x1="125" y1="974" x2="125" y2="5"/>
<line opacity="0.2" stroke="#000000" stroke-width="1" x1="221" y1="974" x2="221" y2="5"/>
<line opacity="0.2" stroke="#000000" stroke-width="1" x1="317" y1="974" x2="317" y2="5"/>
<line opacity="0.2" stroke="#000000" stroke-width="1" x1="413" y1="974" x2="413" y2="5"/>
<line opacity="0.2" stroke="#000000" stroke-width="1" x1="509" y1="974" x2="509" y2="5"/>
<line opacity="0.2" stroke="#000000" stroke-width="1" x1="604" y1="974" x2="604" y2="5"/>
<line opacity="0.2" stroke="#000000" stroke-width="1" x1="700" y1="974" x2="700" y2="5"/>
<line opacity="0.2" stroke="#000000" stroke-width="1" x1="796" y1="974" x2="796" y2="5"/>
<line opacity="0.2" stroke="#000000" stroke-width="1" x1="892" y1="974" x2="892" y2="5"/>
<line opacity="0.2" stroke="#000000" stroke-width="1" x1="989" y1="974" x2="989" y2="5"/>
<line opacity="0.2" stroke="#000000" stroke-width="1" x1="25" y1="974" x2="994" y2="974"/>
<line opacity="0.2" stroke="#000000" stroke-width="1" x1="25" y1="878" x2="994" y2="878"/>
<line opacity="0.2" stroke="#000000" stroke-width="1" x1="25" y1="781" x2="994" y2="781"/>
<line opacity="0.2" stroke="#000000" stroke-width="1" x1="25" y1="684" x2="994" y2="684"/>
<line opacity="0.2" stroke="#000000" stroke-width="1" x1="25" y1="587" x2="994" y2="587"/>
<line opacity="0.2" stroke="#000000" stroke-width="1" x1="25" y1="490" x2="994" y2="490"/>
<line opacity="0.2" stroke="#000000" stroke-width="1" x1="25" y1="393" x2="994" y2="393"/>
<line opacity="0.2" stroke="#000000" stroke-width="1" x1="25" y1="296" x2="994" y2="296"/>
<line opacity="0.2" stroke="#000000" stroke-width="1" x1="25" y1="199" x2="994" y2="199"/>
<line opacity="0.2" stroke="#000000" stroke-width="1" x1="25" y1="102" x2="994" y2="102"/>
<line opacity="0.2" stroke="#000000" stroke-width="1" x1="25" y1="5" x2="994" y2="5"/>
<polyline fill="none" opacity="1" stroke="#000000" stroke-width="1" points="24,5 24,974 "/>
<text x="15" y="974" dy="0.5ex" text-anchor="end" font-family="sans-serif" font-size="9.67741935483871" opacity="1" fill="#000000">
0
</text>
<polyline fill="none" opacity="1" stroke="#000000" stroke-width="1" points="19,974 24,974 "/>
<text x="15" y="878" dy="0.5ex" text-anchor="end" font-family="sans-serif" font-size="9.67741935483871" opacity="1" fill="#000000">
10
</text>
<polyline fill="none" opacity="1" stroke="#000000" stroke-width="1" points="19,878 24,878 "/>
<text x="15" y="781" dy="0.5ex" text-anchor="end" font-family="sans-serif" font-size="9.67741935483871" opacity="1" fill="#000000">
20
</text>
<polyline fill="none" opacity="1" stroke="#000000" stroke-width="1" points="19,781 24,781 "/>
<text x="15" y="684" dy="0.5ex" text-anchor="end" font-family="sans-serif" font-size="9.67741935483871" opacity="1" fill="#000000">
30
</text>
<polyline fill="none" opacity="1" stroke="#000000" stroke-width="1" points="19,684 24,684 "/>
<text x="15" y="587" dy="0.5ex" text-anchor="end" font-family="sans-serif" font-size="9.67741935483871" opacity="1" fill="#000000">
40
</text>
<polyline fill="none" opacity="1" stroke="#000000" stroke-width="1" points="19,587 24,587 "/>
<text x="15" y="490" dy="0.5ex" text-anchor="end" font-family="sans-serif" font-size="9.67741935483871" opacity="1" fill="#000000">
50
</text>
<polyline fill="none" opacity="1" stroke="#000000" stroke-width="1" points="19,490 24,490 "/>
<text x="15" y="393" dy="0.5ex" text-anchor="end" font-family="sans-serif" font-size="9.67741935483871" opacity="1" fill="#000000">
60
</text>
<polyline fill="none" opacity="1" stroke="#000000" stroke-width="1" points="19,393 24,393 "/>
<text x="15" y="296" dy="0.5ex" text-anchor="end" font-family="sans-serif" font-size="9.67741935483871" opacity="1" fill="#000000">
70
</text>
<polyline fill="none" opacity="1" stroke="#000000" stroke-width="1" points="19,296 24,296 "/>
<text x="15" y="199" dy="0.5ex" text-anchor="end" font-family="sans-serif" font-size="9.67741935483871" opacity="1" fill="#000000">
80
</text>
<polyline fill="none" opacity="1" stroke="#000000" stroke-width="1" points="19,199 24,199 "/>
<text x="15" y="102" dy="0.5ex" text-anchor="end" font-family="sans-serif" font-size="9.67741935483871" opacity="1" fill="#000000">
90
</text>
<polyline fill="none" opacity="1" stroke="#000000" stroke-width="1" points="19,102 24,102 "/>
<text x="15" y="5" dy="0.5ex" text-anchor="end" font-family="sans-serif" font-size="9.67741935483871" opacity="1" fill="#000000">
100
</text>
<polyline fill="none" opacity="1" stroke="#000000" stroke-width="1" points="19,5 24,5 "/>
<polyline fill="none" opacity="1" stroke="#000000" stroke-width="1" points="25,975 994,975 "/>
<text x="29" y="985" dy="0.76em" text-anchor="middle" font-family="sans-serif" font-size="9.67741935483871" opacity="1" fill="#000000">
0
</text>
<polyline fill="none" opacity="1" stroke="#000000" stroke-width="1" points="29,975 29,980 "/>
<text x="125" y="985" dy="0.76em" text-anchor="middle" font-family="sans-serif" font-size="9.67741935483871" opacity="1" fill="#000000">
10
</text>
<polyline fill="none" opacity="1" stroke="#000000" stroke-width="1" points="125,975 125,980 "/>
<text x="221" y="985" dy="0.76em" text-anchor="middle" font-family="sans-serif" font-size="9.67741935483871" opacity="1" fill="#000000">
20
</text>
<polyline fill="none" opacity="1" stroke="#000000" stroke-width="1" points="221,975 221,980 "/>
<text x="317" y="985" dy="0.76em" text-anchor="middle" font-family="sans-serif" font-size="9.67741935483871" opacity="1" fill="#000000">
30
</text>
<polyline fill="none" opacity="1" stroke="#000000" stroke-width="1" points="317,975 317,980 "/>
<text x="413" y="985" dy="0.76em" text-anchor="middle" font-family="sans-serif" font-size="9.67741935483871" opacity="1" fill="#000000">
40
</text>
<polyline fill="none" opacity="1" stroke="#000000" stroke-width="1" points="413,975 413,980 "/>
<text x="509" y="985" dy="0.76em" text-anchor="middle" font-family="sans-serif" font-size="9.67741935483871" opacity="1" fill="#000000">
50
</text>
<polyline fill="none" opacity="1" stroke="#000000" stroke-width="1" points="509,975 509,980 "/>
<text x="604" y="985" dy="0.76em" text-anchor="middle" font-family="sans-serif" font-size="9.67741935483871" opacity="1" fill="#000000">
60
</text>
<polyline fill="none" opacity="1" stroke="#000000" stroke-width="1" points="604,975 604,980 "/>
<text x="700" y="985" dy="0.76em" text-anchor="middle" font-family="sans-serif" font-size="9.67741935483871" opacity="1" fill="#000000">
70
</text>
<polyline fill="none" opacity="1" stroke="#000000" stroke-width="1" points="700,975 700,980 "/>
<text x="796" y="985" dy="0.76em" text-anchor="middle" font-family="sans-serif" font-size="9.67741935483871" opacity="1" fill="#000000">
80
</text>
<polyline fill="none" opacity="1" stroke="#000000" stroke-width="1" points="796,975 796,980 "/>
<text x="892" y="985" dy="0.76em" text-anchor="middle" font-family="sans-serif" font-size="9.67741935483871" opacity="1" fill="#000000">
90
</text>
<polyline fill="none" opacity="1" stroke="#000000" stroke-width="1" points="892,975 892,980 "/>
<text x="989" y="985" dy="0.76em" text-anchor="middle" font-family="sans-serif" font-size="9.67741935483871" opacity="1" fill="#000000">
100
</text>
<polyline fill="none" opacity="1" stroke="#000000" stroke-width="1" points="989,975 989,980 "/>
<rect x="111" y="5" width="-10" height="969" opacity="1" fill="#0000FF" stroke="none"/>
<rect x="524" y="771" width="-11" height="203" opacity="1" fill="#0000FF" stroke="none"/>
<rect x="648" y="936" width="-10" height="38" opacity="1" fill="#0000FF" stroke="none"/>
<rect x="533" y="858" width="-10" height="116" opacity="1" fill="#0000FF" stroke="none"/>
<rect x="188" y="5" width="-10" height="969" opacity="1" fill="#0000FF" stroke="none"/>
<rect x="552" y="945" width="-10" height="29" opacity="1" fill="#0000FF" stroke="none"/>
<rect x="140" y="5" width="-10" height="969" opacity="1" fill="#0000FF" stroke="none"/>
<rect x="63" y="5" width="-10" height="969" opacity="1" fill="#0000FF" stroke="none"/>
<rect x="92" y="5" width="-10" height="969" opacity="1" fill="#0000FF" stroke="none"/>
<rect x="572" y="916" width="-11" height="58" opacity="1" fill="#0000FF" stroke="none"/>
<rect x="380" y="5" width="-11" height="969" opacity="1" fill="#0000FF" stroke="none"/>
<rect x="341" y="5" width="-10" height="969" opacity="1" fill="#0000FF" stroke="none"/>
<rect x="456" y="616" width="-10" height="358" opacity="1" fill="#0000FF" stroke="none"/>
<rect x="428" y="461" width="-11" height="513" opacity="1" fill="#0000FF" stroke="none"/>
<rect x="610" y="945" width="-11" height="29" opacity="1" fill="#0000FF" stroke="none"/>
<rect x="591" y="955" width="-11" height="19" opacity="1" fill="#0000FF" stroke="none"/>
<rect x="658" y="955" width="-11" height="19" opacity="1" fill="#0000FF" stroke="none"/>
<rect x="706" y="965" width="-11" height="9" opacity="1" fill="#0000FF" stroke="none"/>
<rect x="504" y="723" width="-10" height="251" opacity="1" fill="#0000FF" stroke="none"/>
<rect x="245" y="5" width="-10" height="969" opacity="1" fill="#0000FF" stroke="none"/>
<rect x="514" y="829" width="-10" height="145" opacity="1" fill="#0000FF" stroke="none"/>
<rect x="82" y="5" width="-10" height="969" opacity="1" fill="#0000FF" stroke="none"/>
<rect x="466" y="684" width="-10" height="290" opacity="1" fill="#0000FF" stroke="none"/>
<rect x="198" y="5" width="-11" height="969" opacity="1" fill="#0000FF" stroke="none"/>
<rect x="313" y="5" width="-11" height="969" opacity="1" fill="#0000FF" stroke="none"/>
<rect x="562" y="897" width="-10" height="77" opacity="1" fill="#0000FF" stroke="none"/>
<rect x="159" y="5" width="-10" height="969" opacity="1" fill="#0000FF" stroke="none"/>
<rect x="226" y="5" width="-10" height="969" opacity="1" fill="#0000FF" stroke="none"/>
<rect x="303" y="5" width="-10" height="969" opacity="1" fill="#0000FF" stroke="none"/>
<rect x="370" y="5" width="-10" height="969" opacity="1" fill="#0000FF" stroke="none"/>
<rect x="687" y="965" width="-11" height="9" opacity="1" fill="#0000FF" stroke="none"/>
<rect x="265" y="5" width="-11" height="969" opacity="1" fill="#0000FF" stroke="none"/>
<rect x="437" y="635" width="-10" height="339" opacity="1" fill="#0000FF" stroke="none"/>
<rect x="255" y="5" width="-10" height="969" opacity="1" fill="#0000FF" stroke="none"/>
<rect x="840" y="965" width="-10" height="9" opacity="1" fill="#0000FF" stroke="none"/>
<rect x="677" y="945" width="-10" height="29" opacity="1" fill="#0000FF" stroke="none"/>
<rect x="274" y="5" width="-10" height="969" opacity="1" fill="#0000FF" stroke="none"/>
<rect x="543" y="887" width="-11" height="87" opacity="1" fill="#0000FF" stroke="none"/>
<rect x="54" y="5" width="-11" height="969" opacity="1" fill="#0000FF" stroke="none"/>
<rect x="73" y="5" width="-11" height="969" opacity="1" fill="#0000FF" stroke="none"/>
<rect x="236" y="5" width="-11" height="969" opacity="1" fill="#0000FF" stroke="none"/>
<rect x="207" y="5" width="-10" height="969" opacity="1" fill="#0000FF" stroke="none"/>
<rect x="629" y="936" width="-10" height="38" opacity="1" fill="#0000FF" stroke="none"/>
<rect x="150" y="5" width="-11" height="969" opacity="1" fill="#0000FF" stroke="none"/>
<rect x="418" y="209" width="-10" height="765" opacity="1" fill="#0000FF" stroke="none"/>
<rect x="361" y="5" width="-11" height="969" opacity="1" fill="#0000FF" stroke="none"/>
<rect x="581" y="916" width="-10" height="58" opacity="1" fill="#0000FF" stroke="none"/>
<rect x="389" y="5" width="-10" height="969" opacity="1" fill="#0000FF" stroke="none"/>
<rect x="600" y="916" width="-10" height="58" opacity="1" fill="#0000FF" stroke="none"/>
<rect x="667" y="965" width="-10" height="9" opacity="1" fill="#0000FF" stroke="none"/>
<rect x="639" y="945" width="-11" height="29" opacity="1" fill="#0000FF" stroke="none"/>
<rect x="485" y="645" width="-10" height="329" opacity="1" fill="#0000FF" stroke="none"/>
<rect x="178" y="5" width="-10" height="969" opacity="1" fill="#0000FF" stroke="none"/>
<rect x="399" y="54" width="-10" height="920" opacity="1" fill="#0000FF" stroke="none"/>
<rect x="121" y="5" width="-11" height="969" opacity="1" fill="#0000FF" stroke="none"/>
<rect x="447" y="597" width="-11" height="377" opacity="1" fill="#0000FF" stroke="none"/>
<rect x="332" y="5" width="-11" height="969" opacity="1" fill="#0000FF" stroke="none"/>
<rect x="495" y="761" width="-11" height="213" opacity="1" fill="#0000FF" stroke="none"/>
<rect x="322" y="5" width="-10" height="969" opacity="1" fill="#0000FF" stroke="none"/>
<rect x="351" y="5" width="-10" height="969" opacity="1" fill="#0000FF" stroke="none"/>
<rect x="293" y="5" width="-10" height="969" opacity="1" fill="#0000FF" stroke="none"/>
<rect x="130" y="5" width="-10" height="969" opacity="1" fill="#0000FF" stroke="none"/>
<rect x="102" y="5" width="-11" height="969" opacity="1" fill="#0000FF" stroke="none"/>
<rect x="169" y="5" width="-11" height="969" opacity="1" fill="#0000FF" stroke="none"/>
<rect x="409" y="170" width="-11" height="804" opacity="1" fill="#0000FF" stroke="none"/>
<rect x="476" y="703" width="-11" height="271" opacity="1" fill="#0000FF" stroke="none"/>
<rect x="284" y="5" width="-11" height="969" opacity="1" fill="#0000FF" stroke="none"/>
<rect x="619" y="936" width="-10" height="38" opacity="1" fill="#0000FF" stroke="none"/>
<rect x="217" y="5" width="-11" height="969" opacity="1" fill="#0000FF" stroke="none"/>
</svg>
